<?xml version="1.0" encoding="utf-8"?>
<!-- Generator: Adobe Illustrator 18.1.0, SVG Export Plug-In . SVG Version: 6.00 Build 0)  -->
<svg version="1.1" id="Layer_1" xmlns="http://www.w3.org/2000/svg" xmlns:xlink="http://www.w3.org/1999/xlink" x="0px" y="0px"
	 viewBox="0 0 48 48" enable-background="new 0 0 48 48" xml:space="preserve">
<g>
	<path fill="#737474" d="M6.4,17.2c2.6,0,4.8,1.8,5.5,4.2l31.3-11l-3.1-8.9l-37,13l1.1,3.1C4.9,17.4,5.6,17.2,6.4,17.2z"/>
	<path fill="#737474" d="M12.1,23.4c-0.2,2.9-2.7,5.3-5.7,5.3c-0.2,0-0.4,0-0.6-0.1v17.9H45V23.4H12.1z"/>
	<circle fill="#737474" cx="6.4" cy="22.9" r="3.7"/>
	<polygon fill="#FFFFFF" points="19,30.2 12.3,30.2 15,25.4 21.8,25.4 	"/>
	<polygon fill="#FFFFFF" points="30,30.2 23.3,30.2 26,25.4 32.7,25.4 	"/>
	<polygon fill="#FFFFFF" points="41,30.2 34.2,30.2 37,25.4 43.7,25.4 	"/>
	<polygon fill="#FFFFFF" points="16,12.1 9.7,14.4 13.9,18 20.2,15.8 	"/>
	<polygon fill="#FFFFFF" points="26.4,8.5 20,10.7 24.2,14.4 30.6,12.2 	"/>
	<polygon fill="#FFFFFF" points="36.8,4.9 30.4,7.1 34.6,10.8 40.9,8.5 	"/>
</g>
</svg>
