<?xml version="1.0" encoding="utf-8"?>
<!-- Generator: Adobe Illustrator 18.1.0, SVG Export Plug-In . SVG Version: 6.00 Build 0)  -->
<svg version="1.1" id="Layer_1" xmlns="http://www.w3.org/2000/svg" xmlns:xlink="http://www.w3.org/1999/xlink" x="0px" y="0px"
	 viewBox="0 0 183.5 140.1" enable-background="new 0 0 183.5 140.1" xml:space="preserve">
<path display="none" fill="#FFFFFF" d="M91.6,120.1c32.6,0,61,8.1,75.7,20c8.8-13.9,13.9-30.3,13.9-47.9c0-49.5-40.1-89.6-89.6-89.6
	S2,42.7,2,92.2c0,17.6,5.1,34,13.9,47.9C30.6,128.1,59,120.1,91.6,120.1z"/>
<path fill="#606895" d="M91.6,20.5c19.4,0,37,7.5,50,19.7l10.9-10.9C136.6,14.3,115.2,5,91.6,5c-24.1,0-46,9.7-62,25.3l10.9,10.9
	C53.7,28.4,71.7,20.5,91.6,20.5z"/>
<path fill="#A0AAD6" d="M18.7,92.9c0-20.3,8.4-38.6,21.9-51.7L28.5,29C12.8,45,3,66.9,3,91.2c0,16.6,4.6,32.2,12.6,45.5l12.7-7.8
	C22.2,118.2,18.7,106,18.7,92.9z"/>
<path fill="#2C2C77" d="M152.1,28.9l-10.9,10.9c14.3,13.2,23.3,32.1,23.3,53c0,13.2-3.5,25.5-9.7,36.1l13.3,8.1
	c7.4-12.9,11.7-27.9,11.7-43.9C179.7,67.9,169.1,45.1,152.1,28.9z"/>
<path display="none" fill="#FFFFFF" d="M91.6,119.3c24.3,0,46.3,4.5,62,11.6c6.9-11.1,10.9-24.1,10.9-38.1c0-40-32.6-72.4-72.9-72.4
	S18.7,52.9,18.7,92.9c0,14,4,27,10.9,38.1C45.3,123.8,67.3,119.3,91.6,119.3z"/>
<path fill="#010101" d="M144.2,42.7l11.5-11.5l-4.6-4.6l-11.6,11.6C141.1,39.7,142.7,41.2,144.2,42.7z"/>
<path fill="#010101" d="M91.6,20.5c1.1,0,2.2,0,3.3,0.1V4.2h-6.6v16.4C89.4,20.5,90.5,20.5,91.6,20.5z"/>
<path fill="#010101" d="M43.1,38.8L31,26.6l-4.6,4.6l12.1,12.1C39.9,41.8,41.5,40.3,43.1,38.8z"/>
<path fill="#010101" d="M91.6,2.5c-49.1,0-89,39.9-89,89c0,15.9,4.3,31.6,12.4,45.3l1.3,2.2l13.2-8.3c-0.9-1.4-1.7-2.9-2.5-4.3
	l-9,5.6c-6.8-12.4-10.4-26.3-10.4-40.5c0-46.3,37.7-84,84-84c46.3,0,84,37.7,84,84c0,14.2-3.6,28.1-10.4,40.5l-9-5.6
	c-0.8,1.5-1.6,2.9-2.5,4.3l13.2,8.3l1.3-2.2c8.1-13.7,12.4-29.3,12.4-45.3C180.6,42.5,140.7,2.5,91.6,2.5z"/>
<g>
	<path fill="#010101" d="M99.1,76.1l0.1,0L54.6,54.2L76.9,95c0.8,1.9,1.9,3.8,3.5,5.3c6,6,15.8,6,21.8-0.1c6-6,6-15.8-0.1-21.8
		C101.2,77.5,100.2,76.8,99.1,76.1z M97.8,95.9c-3.6,3.6-9.5,3.6-13.1,0s-3.6-9.5,0-13.1s9.5-3.6,13.1,0S101.4,92.3,97.8,95.9z"/>
	<path fill="#FFFFFF" d="M84.7,96c3.6,3.6,9.5,3.6,13.1,0c3.6-3.6,3.6-9.5,0-13.1c-3.6-3.6-9.5-3.6-13.1,0
		C81.1,86.5,81.1,92.4,84.7,96z"/>
</g>
<text transform="matrix(1 0 0 1 22.7471 93.4287)" fill="#010101" font-family="'ITCFranklinGothicStd-Book'" font-size="11.086">15</text>
<text transform="matrix(1 0 0 1 43.1768 49.8779)" fill="#010101" font-family="'ITCFranklinGothicStd-Book'" font-size="11.086">35</text>
<text transform="matrix(1 0 0 1 126.9824 51.1318)" fill="#010101" font-family="'ITCFranklinGothicStd-Book'" font-size="11.086">75</text>
<text transform="matrix(1 0 0 1 84.9585 32.5928)" fill="#010101" font-family="'ITCFranklinGothicStd-Book'" font-size="11.086">55</text>
<text transform="matrix(1 0 0 1 142.9604 93.1563)" fill="#010101" font-family="'ITCFranklinGothicStd-Book'" font-size="11.086">150</text>
<path fill="#010101" d="M19.1,85.4H3.6v6.6h15.1C18.7,89.7,18.9,87.5,19.1,85.4z"/>
<path fill="#010101" d="M164.1,85.4c0.2,2.2,0.3,4.3,0.4,6.6h15.1v-6.6H164.1z"/>
</svg>
