<?xml version="1.0" encoding="utf-8"?>
<!-- Generator: Adobe Illustrator 18.1.0, SVG Export Plug-In . SVG Version: 6.00 Build 0)  -->
<svg version="1.1" id="Layer_1" xmlns="http://www.w3.org/2000/svg" xmlns:xlink="http://www.w3.org/1999/xlink" x="0px" y="0px"
	 viewBox="0 0 48 48" enable-background="new 0 0 48 48" xml:space="preserve">
<g>
	<g>
		<path fill="#737474" d="M35.2,28.9c-1.1,0-2.1-0.3-3-1.1L9.7,10.1C7.6,8.4,7.2,5.3,8.9,3.2c1.7-2.1,4.8-2.5,6.9-0.8l22.5,17.7
			c2.1,1.7,2.5,4.8,0.8,6.9C38.1,28.3,36.7,28.9,35.2,28.9z"/>
	</g>
	<g>
		<path fill="#737474" d="M12.8,46.7c1.1,0,2.1-0.3,3-1.1l22.5-17.7c2.1-1.7,2.5-4.8,0.8-6.9c-1.7-2.1-4.8-2.5-6.9-0.8L9.7,37.9
			c-2.1,1.7-2.5,4.8-0.8,6.9C9.9,46,11.3,46.7,12.8,46.7z"/>
	</g>
</g>
</svg>
