<?xml version="1.0" encoding="utf-8"?>
<!-- Generator: Adobe Illustrator 18.0.0, SVG Export Plug-In . SVG Version: 6.00 Build 0)  -->
<!DOCTYPE svg PUBLIC "-//W3C//DTD SVG 1.1//EN" "http://www.w3.org/Graphics/SVG/1.1/DTD/svg11.dtd">
<svg version="1.1" id="Layer_1" xmlns="http://www.w3.org/2000/svg" xmlns:xlink="http://www.w3.org/1999/xlink" x="0px" y="0px"
	 viewBox="0 0 512 215.6" enable-background="new 0 0 512 215.6" xml:space="preserve">
<path fill="#737373" d="M404.2,47.2c-33.5,0-60.6,27.1-60.6,60.6c0,33.5,27.1,60.6,60.6,60.6c33.5,0,60.6-27.1,60.6-60.6
	C464.8,74.3,437.7,47.2,404.2,47.2z M404.2,0C463.7,0,512,48.3,512,107.8c0,59.5-48.3,107.8-107.8,107.8s-107.8-48.3-107.8-107.8
	c0-19.6,5.2-38,14.4-53.9H201.2c9.2,15.9,14.4,34.3,14.4,53.9c0,59.5-48.3,107.8-107.8,107.8C48.3,215.6,0,167.3,0,107.8
	C0,48.3,48.3,0,107.8,0H404.2z M107.8,47.2c-33.5,0-60.6,27.1-60.6,60.6c0,33.5,27.1,60.6,60.6,60.6c33.5,0,60.6-27.1,60.6-60.6
	C168.4,74.3,141.3,47.2,107.8,47.2z"/>
</svg>
