<?xml version="1.0" encoding="utf-8"?>
<!-- Generator: Adobe Illustrator 18.1.0, SVG Export Plug-In . SVG Version: 6.00 Build 0)  -->
<svg version="1.1" id="Layer_1" xmlns="http://www.w3.org/2000/svg" xmlns:xlink="http://www.w3.org/1999/xlink" x="0px" y="0px"
	 viewBox="0 0 100 100" enable-background="new 0 0 100 100" xml:space="preserve">
<g>
	<circle fill="#737373" cx="29.2" cy="28.2" r="19.1"/>
	<path fill="#737373" d="M49.8,43.6h-2.9c0,0-1.9,0-3.1,1.3c-3.7,3.9-8.7,6.7-14.5,6.7c-5.8,0-10.9-2.6-14.4-6.6
		c-1.2-1.4-3.3-1.4-3.3-1.4H8.7c-3.5,0-6.4,2.9-6.4,6.4v34.4c0,3.5,2.9,6.4,6.4,6.4h41.1c3.5,0,6.4-2.9,6.4-6.4V50
		C56.2,46.5,53.3,43.6,49.8,43.6z"/>
	<circle fill="#737373" cx="76.5" cy="41.7" r="15"/>
	<path fill="#737373" d="M92.7,53.7h-2.3c0,0-1.5,0-2.5,1C85,57.8,81.1,60,76.5,60C72,60,68,58,65.2,54.8c-1-1.1-2.6-1.1-2.6-1.1
		h-1.1v37.1h31.1c2.8,0,5-2.3,5-5v-27C97.7,56,95.4,53.7,92.7,53.7z"/>
</g>
</svg>
