<?xml version="1.0" encoding="utf-8"?>
<!-- Generator: Adobe Illustrator 18.1.0, SVG Export Plug-In . SVG Version: 6.00 Build 0)  -->
<svg version="1.1" id="Layer_1" xmlns="http://www.w3.org/2000/svg" xmlns:xlink="http://www.w3.org/1999/xlink" x="0px" y="0px"
	 viewBox="0 0 64 64" enable-background="new 0 0 64 64" xml:space="preserve">
<g>
	<path fill="#737373" d="M56.4,18.5c-1.1-0.7-3.2-1-4.1-1c-3.5,0-36.8,0-40.7,0c-0.9,0-3,0.3-4.1,1C4.7,20.2,0.3,24,0.4,29.5
		c-0.1,9.9,5.8,17,14,17c3.1,0,9.9-3.4,10.7-6.7c0.1,0,13.8,0,13.9,0c0.8,3.4,7.6,6.7,10.7,6.7c8.2,0,14.1-7.1,14-17
		C63.7,24,59.3,20.2,56.4,18.5z"/>
	<circle fill="#FFFFFF" cx="47.9" cy="35.8" r="3.6"/>
	<circle fill="#FFFFFF" cx="55" cy="28.6" r="3.6"/>
	<path fill="#FFFFFF" d="M34.9,30.6h-5.8c-0.9,0-1.6-0.7-1.6-1.6v-0.6c0-0.9,0.7-1.6,1.6-1.6h5.8c0.9,0,1.6,0.7,1.6,1.6v0.6
		C36.5,29.9,35.8,30.6,34.9,30.6z"/>
	<rect x="11.4" y="24.6" fill="#FFFFFF" width="4.4" height="14.2"/>
	<rect x="6.5" y="29.5" fill="#FFFFFF" width="14.2" height="4.4"/>
</g>
</svg>
