<?xml version="1.0" encoding="utf-8"?>
<!-- Generator: Adobe Illustrator 18.1.0, SVG Export Plug-In . SVG Version: 6.00 Build 0)  -->
<svg version="1.1" id="Layer_1" xmlns="http://www.w3.org/2000/svg" xmlns:xlink="http://www.w3.org/1999/xlink" x="0px" y="0px"
	 viewBox="0 0 17 21" enable-background="new 0 0 17 21" xml:space="preserve">
<g>
	<g>
		<path fill="#737373" d="M8.5,20l-0.3-0.2C7.9,19.5,0.7,14,0.7,8.8C0.8,4.5,4.2,1,8.5,1c4.3,0,7.8,3.5,7.8,7.8
			c0,5.2-7.2,10.7-7.5,10.9L8.5,20z M8.5,2C4.8,2,1.7,5,1.7,8.8c0,4.2,5.5,8.9,6.8,10c1.3-1.1,6.8-5.8,6.8-10C15.3,5,12.3,2,8.5,2z"
			/>
	</g>
	<circle fill="#737373" cx="8.5" cy="9" r="3.5"/>
</g>
</svg>
