<?xml version="1.0" encoding="utf-8"?>
<!-- Generator: Adobe Illustrator 18.1.0, SVG Export Plug-In . SVG Version: 6.00 Build 0)  -->
<svg version="1.1" id="Layer_1" xmlns="http://www.w3.org/2000/svg" xmlns:xlink="http://www.w3.org/1999/xlink" x="0px" y="0px"
	 viewBox="0 0 48 48" enable-background="new 0 0 48 48" xml:space="preserve">
<path fill="#737474" d="M36.7,18.9H11.3c-2.7,0-5,2.2-5,5v18.7c0,2.7,2.2,5,5,5h25.5c2.7,0,5-2.2,5-5V23.9
	C41.7,21.1,39.5,18.9,36.7,18.9z M26.4,36.2v5.3c0,1.3-1,2.3-2.3,2.3h-0.3c-1.3,0-2.3-1-2.3-2.3v-5.3c-1.3-0.8-2.2-2.3-2.2-3.9
	c0-2.6,2.1-4.6,4.6-4.6s4.6,2.1,4.6,4.6C28.6,34,27.7,35.4,26.4,36.2z"/>
<path fill="#737474" d="M36,11.3C35.4,5.2,30.2,0.5,24,0.5S12.6,5.2,12,11.3H12v5.8h4.2v-5.2c0.3-4,3.7-7.2,7.8-7.2s7.5,3.2,7.8,7.2
	v5.2H36L36,11.3L36,11.3z"/>
</svg>
