<?xml version="1.0" encoding="utf-8"?>
<!-- Generator: Adobe Illustrator 18.0.0, SVG Export Plug-In . SVG Version: 6.00 Build 0)  -->
<!DOCTYPE svg PUBLIC "-//W3C//DTD SVG 1.1//EN" "http://www.w3.org/Graphics/SVG/1.1/DTD/svg11.dtd">
<svg version="1.1" id="Layer_1" xmlns="http://www.w3.org/2000/svg" xmlns:xlink="http://www.w3.org/1999/xlink" x="0px" y="0px"
	 viewBox="0 0 150 150" enable-background="new 0 0 150 150" xml:space="preserve">
<g>
	<path fill="#737373" d="M75,1.1C34.2,1.1,1.1,34.2,1.1,75c0,40.8,33.1,73.9,73.9,73.9c40.8,0,73.9-33.1,73.9-73.9
		C148.9,34.2,115.8,1.1,75,1.1z M123.9,53.4c0.8,0,1.2-0.8,1.9-1c1.3-0.4,0.9,0.4,1.5,1.1c0.6,0-0.7,0.4-0.8,0.4
		c-0.6,0.2-0.5,0.1-1,0.1c-0.2,0.2,0.3,1.3,0.4,1.3c0.4,0.6,0.6,0.2,0.6,1.1c0,0.8,0.6,0.1,0.9,0.1c0,0.5,0.7,0.9,0.8,1.5
		c-0.3,0-1-0.1-1.2,0c0,0.6,0.4,0.6,0.4,1.1c0.6,0-0.5,1.6,0.6,1.6c-0.3,1-1.9,0.6-2.1-0.3c-1.6-0.4-0.8-1.5-0.8-2.4
		c-0.1-1.2-1.1-1.6-1.1-2.5C123.1,55.3,123.9,53.6,123.9,53.4z M123.4,109.6c0.1-1-0.1-2.8,0.4-2.8c0-0.8,0.4-1.8,0.5-2.8
		c0.2,0,0.3,0,0.5,0c0-0.2,0-0.9,0.3-1.1c0-0.5,1.3-0.8,0.6-1.5c-0.3-0.1-0.6-1.5-0.6-2c-0.4,0.4,0.2,1.7-0.8,1.7
		c0-1.2-1.3,0.7-0.2,0.7c0,1.1-1.4,0.6-1.8,0.3c-0.2,0.6-0.4,0.8,0.3,1c-0.3,0.8-0.6,0.3-1,0c-0.4,1.2-1.3,7.9,1.3,7.4
		C112,125.1,94.6,134.5,75,134.5c-32.8,0-59.5-26.7-59.5-59.5c0-9.1,2.1-17.7,5.7-25.4c0,0,0,0,0,0c1.7,1.4,1.7,3.7,1.7,5.5
		c-0.2,1,0.3,2.3,0.3,3.3c0.5,0.2,1.4,1.7,1.4,2.2c0,0,1.1,1.5,1.2,1.6c1.3,0,1.9,0.6,1.9,1.8c-0.1,0,0.8,1.8,1.1,2
		c0,0.5,0.8,2.4,1.3,2.6c0,1.6,3.8,4.1,1.6,0.4c-0.2-0.3-1.2-2.2-1.4-2.2c0-0.6-1.3-1.3-1.1-1.9c0.2-0.8,1.7,1.1,1.7,1.5
		c0.2,0,0.8,1.2,0.8,1.4c0.4,0,1.7,1,1.7,1.7c1,0,1.6,2.5,1.6,3.2c0,0.6,0.4,2.2,1.2,2.2c0.4,0.7,2,0.5,2.3,1.2c1,0,2.2,0.8,3.3,0.8
		c1,0,1.2,1.2,2,1.2c0.1,0.3,0.6,0.2,0.6,0.4c0.8,0,3.2,1.3,2.8,2.3c0.4,0.2,1.6,1.4,1.5,1.9c0.2,1.2,2,1.1,2.7,1.5
		c0.7-2,1.5-0.1,1.5,0.9c-0.1,0.3,0,1.7,0,2.3c0.9,0-0.2,1.5-0.5,0.5c-0.3,0.1-0.5,0.4-0.6,0.8c-0.5,0-1.6,2.9-0.5,3.3
		c-0.1,1.1-1.4,2.1-0.2,2.8c0-0.1,2.4,3.4,2,3.4c0,0.5,0.3,1.2,0.5,1.7c0,1,1,3.3,2.4,3.3c0,0,1.5,1.6,1.3,1.6
		c0.4,2.6-0.2,4.3-0.2,7.1c-0.8,0,0,5.6-1.2,6.2c-0.2,0.9-0.9,1.7-0.6,2.2c0.1,0.9,0,1.8,0,2.6c-0.2,0-0.5,1.3-0.5,1.6
		c-0.6,0-0.7,4.8-0.6,6.5c1.5,0.6,3.1,1.1,4.7,1.5c-0.2-0.3-0.3-0.6-0.3-1c-0.6,0,0-1.7,0.7-1.7c0.2-0.8,0.7-0.9,1.1-1.5
		c0.5,0-0.3-0.8-0.3-0.3c-0.1,0-0.1,0.3-0.4,0.4c-0.1-0.2,0-0.5-0.1-0.5c0-0.5,0.3-1.1,0.3-1.7c0.2,0,0.4-0.7,0.7-0.9
		c0.5-0.6,1.1-0.7,1.1-1.6c0.1,0-0.2-1-0.4-1c0.6-0.5,1.3,0.4,1.3-0.6c0.2,0,0.3-0.6,0.3-0.8c0.8-0.5,0.7-0.7,1.9-0.7
		c0.2-0.3,1.1-0.7,1.5-0.7c0-0.1,0.1-1.5,0-1.5c0-0.7,1.3-0.8,1.3-1.1c0.7-0.5,0.9-1.1,0.9-1.9c0-0.7,1-1.4,1.5-1.4
		c0.9,0,0.3-0.4,0.8-0.4c-0.2-0.5,0.2-0.4,0.5-0.7c0.4-0.5,0.2-2.1,0.3-2.8c-0.2,0,0.8-0.9,0.9-1.1c0.5,0,0.8-0.4,1.3-0.4
		c0.2-0.5,1.8-1.2,2.4-1.7c0.3-1,1-1.2,1-2.3c0.3,0,0.6-2.1,0.6-2.5c0.1,0,0.1-1.9,0.1-2.1c0,0,1.5-1.6,1.5-1.7
		c1.3-1,1.1-3.8-0.2-4.9c-0.7-0.6-1.2-1-2.3-1.4c-0.2,0.5-0.6,0.2-1.1,0.2c-0.8,0-0.9,0.5-1.6,0.5c0.1-0.5,0.3-1.8-0.6-1.9
		c0,0.9-0.9,0.5-0.7-0.1c-0.4,0-0.8-0.7-1.5-0.8c0,1-1.5,0.2-1.1,0.2c0-0.1-0.2-1.5,0.1-1.5c-0.1-0.6-0.3-1.6-0.7-1.8
		c-0.4-0.8,0.2-0.5-0.7-1.3c-0.2-0.3-0.2-0.1-0.4-0.4c-0.3,0-0.9-0.8-1.1-0.1c-0.6,0-1.1-0.3-1.6-0.5c-1-0.3-0.1-0.4-0.7-0.7
		c0-0.3-0.9-0.4-0.9-0.8c-0.2-0.5-0.5-0.5-0.6-0.7c-0.1,0-0.2,0-0.2-0.1c-0.2,0-0.2-0.4-0.6-0.4c0-0.1-0.5-0.5-0.6-0.4
		c-0.5,0.3-1.7,0.2-2.2,0.1c-1.3-0.1-1.1-1.6-1.8-1.7c-0.5,0.3-1,0.6-1.5,0.6c-0.1-0.2-0.1-0.1-0.4-0.3c-0.1,0-0.4,0.2-0.5,0.3
		c-0.3,0.2-0.6,0.8-1,0.6c-0.2-0.2-0.3-0.2-0.4,0.2c-0.8,0,0.4,1.9-1.5,1.9c0.1-0.7,0-1.4-1-1.4c0,0.8-1.4,0.7-2,0.6
		c0.2-0.6-0.2-1.1-0.7-1.5c0-0.5-0.4-1.1-0.4-1.9c-0.7,0,0.3-2.1-0.8-2.1c0.1,0.1,0.1,0.2,0.1,0.4c-0.8,0-1.6,0.1-2.3,0
		c0.2-0.7-0.4-0.8-0.2-1.5c0.1-0.6,0.4-1.1,0.5-1.8c0.3,0,0.2-0.9,0.8-0.9c0.5-0.3-0.2-1.2-0.2-0.4c0,0-1,0.3-1.1,0.4
		c0,0.1-1,1-1,0.3c-0.5,0.2-1.2,1.2-0.5,1.4c-0.1,0.4-0.7,0.7-0.7,0.8c-1.1,0-0.7-0.1-0.8-0.6c-0.6,0-1.4-1.5-2-1.5
		c0-0.6-0.7-1.2-0.7-2c-0.2,0-0.2-2.9,0-2.9c0-1.5,1-2.7,2.5-2.9c0.9-0.1,0.8,0.6,1.7,0.7c0.5,0.1,0.8-0.1,1.2-0.3
		c0-0.4-0.3-0.5-0.4-0.9c0.6,0,2.2,0.1,2.4,0.6c0.6,0.2,1.3-0.4,1.7,0.1c0.3,0.4,0.8,1.7,0.8,2.1c-0.1,0,0.5,1,0.6,1.1
		c0.9,0,0.7-0.7,0.5-1.4c-0.1-0.6-0.3-2.3-0.6-2.7c0-1.6,1.1-1.5,1.7-2.7c1,0,1.2-1.6,1.8-2c0-0.2,0.4-1.5,0.5-1.6
		c0.1-0.8,0.5-0.8,0.8-1.3c-0.1,0,1.3-1,1.3-0.9c0.5-0.3,1-1.4,1.2-2c0.3,0,0.9-0.5,1-0.8c0.7,0,1.1-0.4,1.9-0.4
		c-0.1,0.3,0,0.2,0.1,0.7c0,0-0.5,0.1-0.6,0c-0.1,0.4-0.9,0.5,0.7,0.3c0.1-0.2,0.6-0.4,0.9-0.5c0-0.5,0.7-0.1,0.9-0.6
		c-0.6,0-1-0.3-1.4-0.9c-0.4-0.7-1.2-1.5,0.1-1.5c0-0.2-0.2-0.1-0.2-0.3c-0.7,0.2-0.9,0.7-1.7,0.7c-1,0.3-1.4,1.3-2.5,1.3
		c0.1-1,1.8-3,2.7-3.2c1.7-0.5,4.5,1,5-1.1c0.3,0,1.8,0.6,1.8-0.1c0.4,0-0.3-0.7,0.4-0.7c-0.1-0.5-0.9-1.1-1.2-1.1
		c0-1.1-0.6,0.1-0.9,0.1c0-0.7-0.3-0.6-0.5-0.9c0-0.5-1.1-1.3-1.5-1.8c-0.5,0-1.2-2.4-1.5-2.1c0,0.6-0.4,1.4-1.1,1.4
		c0,0.4-1,0.2-1.2,0.2c0-0.6,0.2-0.1,0.2-0.4c-0.3,0-0.3-0.4-0.3-0.5c-0.2,0-1.7-1.4-1.7-1.7c-1.3,0.4-0.3-0.1-1.6-0.7
		c-0.4,1.1-1.7,0.2-2.4,0.2c0,0.2-0.6-0.1-0.9,0c0,0.7,0.6,2.1-0.2,2.3c0.1,0.5,0.5,0.2,0.8,0.5c0.4,0.5,0.3,1.5,0,2.1
		c1.1,0.4-0.9,1.3-0.9,0.8c-0.6,0.2-0.7,1-0.1,1.4c0,0.4-0.2,1.1,0.4,1.1c-0.2,0.6-1.1,0.7-1.7,0.5c-0.1-0.2,0-0.3,0.2-0.2
		c-0.1-0.4-0.6-1.5-0.4-1.5c-0.1-0.4-1.4-2.3-1.4-1.3c-0.7,0-1.5,0.1-1.5-0.7c-0.3-0.1-0.7-0.3-0.8-0.5c-1.3-0.2-1.8-0.3-3.2-0.6
		c0.1-0.6-1.2-1.7-1.8-2c0-1.4-0.4-2.8,1.2-3c0,0.2,1.4-0.4,1.6-0.5c0.4-0.8,1.2,0.4,1.5-0.8c0.2-0.7,1.1-1.2,1.8-0.9
		c-0.1,0.9-0.4,1.8-1.2,1.8c0.6,0.5,2.1-0.2,2.7-0.2c0,0.1,1,0.2,1.3,0.2c-0.4-0.6-3.2-1.1-1.9-2c0-0.3,1.1-0.3,1.3-0.9
		c0.1-0.5,0.2-1.8,0-1.9c-0.4-0.1-0.8,0.1-1.4-0.1c0-0.2,0-0.4-0.2-0.4c0,0.6-0.5,0-1,0.2c0,0.1,0.4,0.6,0.1,0.6
		c0,0.9-0.1,1.8-1.3,1.9c0-0.6-0.3-1.8-1-2c0,1.9-1.8-0.8-2.1-1.1c-0.1-0.6-0.5-0.8-1-1c-0.3,0.8-0.8,0.1-1.3,0.9
		c-0.4,0.6,0,0.6-0.4,1.3c-0.5,0-1.9-0.4-1.9,0.2c0.6,0,0.8,0.1,0.7,0.7c0.9,0-0.4,0.6-0.4,0.7c-0.5,0-0.9,0.2-1.5,0.1
		c-0.8-0.1-1.6-0.3-2.4-0.5c-0.6-0.2-0.5-0.6-0.8-0.6c-0.9-1.4,1.3-0.6,1.3-0.5c0.7,0,1.5,0.9,1.4-0.6c0.3,0.1,0.5,0.1,0.8,0.1
		c-0.2-0.7-0.9-0.3-1.5-0.3c0-0.4-0.6-1.4-0.7-1.4c-0.2-0.7-0.1-0.8-0.1-1.4c-0.2,0-1.1,0.7-1.2,0.5c10.6-9.9,24.9-16,40.6-16
		c18.2,0,34.6,8.3,45.5,21.2c-0.4,1-1.2,0.2-1.6,0.9c-0.1,0-0.4,0.9,0.2,0.9c-0.2,0.8-1,0.7-1,0c-0.5,0-0.9,0.6-1.6,0.6
		c0.1-0.5-0.9-1.9-1.5-1.9c0.2-0.4,0,0,0-0.4c1.6,0,3.3-0.3,4.6-0.3c0-0.9-2.6-2-3.3-1.7c-0.4,0.2-1.5-0.4-2.1-0.4
		c0-0.4-3.3-0.4-3.8-0.4c0-0.7-5.2,0.8-5.7,0.8c-1.1,0.1-1.6,0.7-2.5,1.5c0,0-2.7,2.2-1.4,2.2c-0.2,1.5-4.2,1.4-4.2,2.3
		c-0.2,0-1.4-0.2-0.8,0.8c-0.1,0,0.9,1.1,1,1.3c0.8,0,1.6,0.4,2.6,0.4c0.1-0.2,0.6-0.3,0.9-0.4c0.1,0.6,0.5,1.8,0.9,1.8
		c0,0.6,0.3,1.4-0.8,0.9c-0.1-0.1-0.2-0.9-0.2-1.2c-0.1-0.7-0.9,0.3-1.6,0.2c0,0.5-0.1,2,0.5,2.2c-0.3,0.8-1.4,0.3-1.8,1
		c-0.4,0-1.1,1.2-1.1,0.4c-0.6,0.4,0.1,1.5-1.2,0.9c0,0.3,0,0.6-0.1,1.1c0.8,0-0.2,0.6-0.4,0.6c0,0.8-0.9,0-1.1-0.2
		c0,0-0.1,0.1-0.1,0.1c0.7,1.2-1.1,0.7-1.6,0.4c-0.6-0.3,0.2,0.6,0.7,0.7c0,0.6,2,1.7,0.9,2.9c0,0.4,0,0.4,0.4,0.4
		c0,0.9-1,0.7-1.7,0.6c0.3-0.5,0.1-0.8-0.6-0.8c0,0.7-1.6,0.3-2.2,0.6c-0.1-0.3-0.2-0.3-0.4-0.4c-0.2,0.4-0.5,3.5-0.4,3.5
		c0,1.2,0.9,2,2,2.3c0-0.3,2.5-0.1,2.6-0.5c0.2-0.8,0.9-0.8,1.1-1.7c0.1-0.4,1.3-3.5,1.4-3.5c0-0.1,2.3,0.6,2.7-0.2
		c0.2,0,0.7-0.2,0.9-0.4c0.7,0.1,0.9,1.5,1.4,1.5c0.5,0.8,1.8,0.6,2.2,1.5c0.6,0,0.7,1.6,0.7,2.2c0.7-0.5,0.8-1,0.6-1.6
		c-0.3-1,0.8,0.2,1.1-0.3c-0.5,0-0.4-0.9-1.3-0.7c-0.1-0.3-0.1-0.5-0.1-0.8c-1.2,0.2-1.1-1.7-2.1-1.5c-0.1-0.5-0.7-0.6-0.4-1.2
		c0.5-0.9,2.1,1.7,2.8,1.7c0.2,0.3,1.3,0.4,1.3,0.7c0.6,0.2,0.3,1.1,0.3,1.7c0.5,0,0.4,0.3,0.6,0.7c0.8,0.4,0.3,1.9,1.6,2.1
		c0-0.5,1.3-1.5,0.5-1.5c0.1-0.4-0.8-2.2,0.4-1.9c0.4,0.1,1.2,0.1,1.3,0.7c0.3,1.1,0,1.7,0.9,2.4c0.5,1.1,2.4-0.1,2.6,0.4
		c0.2,0,1.4,0.5,1.4,0.1c0.5-0.2,0.7-0.3,1.4-0.3c0,0.7-0.2,1.5-0.4,2.1c-0.1,0.5-0.6,0.9-0.4,1.5c-0.4,0-0.4,0.6,0.1,0.6
		c0,0.9-1.1,0.8-1.7,0.7c0.2,0.7,1.4,2.1,1.8,2.4c0.2,0.6,0.7,1.6,1.2,1.9c0.1,0.4,0.5,1.7,0.9,1.8c0,0.7,2.3,4.9,1.7,4.9
		c0.2,0.4,0.5,0.5,0.4,0.9c0.9,0,0.5,2.1,2.3,2.1c0.1-0.3,1.6-0.8,1.9-0.8c0.3-0.7,2.1-1.2,2.6-1.2c-0.2-0.5,2.7-1.8,2.7-2
		c0.4-0.1,0.7-0.9,0.7-1.3c0-0.7,0.5-0.7,0.5-1.2c0.8-0.5,1-1.8-0.1-2.1c0.2,1.1-0.8,0.5-0.6,0.2c0.2-0.4-0.1-0.6-0.4-1
		c-0.4-0.2,0.1-0.6-0.3-0.9c-0.5,1.2-1.4,1.7-2.4,1.7c-0.3-0.8,0.6,0.2-0.1-0.9c-0.2-0.3-0.3-0.7-0.2-1.1c-0.1,0-0.1,0-0.2-0.1
		c-0.2,1-0.1,1.2-0.8,1.2c-0.1-0.4,0.6-0.5,0-1.1c-0.2-0.2-0.4-0.8-0.4-1.1c-0.3-0.2-1.1-1.4-0.9-1.8c0.7-1.2,2.3,1.6,2.1,2.1
		c0.1,0,0.1,0,0.1,0.1c1.9-0.6,3.6,1.3,5.5,1.3c0.3,0.1,1.4,0.4,2.2,0.3c0.1,1.6,0.2,3.3,0.2,5C134.5,87.9,130.4,99.9,123.4,109.6z
		 M111.3,56.5c-0.1-1.6,0.8-2.5,1.5-3.9c1.1-0.1,1.5,0.2,1.5,1.2c0.8,0,0.2,0.9,1.2,0.5c0.3-0.4,0.6-0.5,1-0.3
		c0.7,0,0.9,0.4,1.4,0.4c0.5,1,2,0.7,1.9,2.4c1.1,0-1,1.1-1,0.9c-1.2,0.4-1.5-0.9-2-0.9c0,1.1-0.6-0.2-0.8-0.2
		c0,0.4-3.7,0.6-4.4,0.6C111.7,56.7,111.8,56.6,111.3,56.5z"/>
	<path fill="#737373" d="M85.2,37.5c-0.5,0.2-0.3,0.6-1,0.4c0-1.2-0.3-0.5-1.5-0.3c-0.2,0-1.7,0.5-1.7,0.3c0,0,0-0.5,0-0.7
		c-0.3-0.1-0.1,0-0.1-0.2c-0.2,0-1.3,0.5-1.3,0.5c1,0-0.1,0.8-0.1,1.1c0.7,0.1,1.2,0.4,1.8,0.4c0,0.2,1.7-0.1,1.9-0.1
		c0.7,0,1.2-0.1,1.7-0.5C85.7,38,85.2,38,85.2,37.5z"/>
	<path fill="#737373" d="M91.2,45.8c1,0,1.2,0.3,1.3,1.4c1.1,0.4-0.8,0.3-0.9,0.3c0,0.5-0.7,1.5,0.2,1.2c0.6-0.2,0.8-0.2,0.8,0.6
		c0.9,0,2.1,0,2.5-0.9c0.5,0,0.5-0.4,0-0.6c0,0.5,0,0.5-0.5,0.5c0.2-1,0.1-1.9-0.9-1.9c0.2-0.4-0.2-0.8-0.6-1.1
		c-0.7-0.6,0-0.7,0.1-1.3c-0.5,0.1-0.5,0.6-1.3,0.6c0-0.2,0.2-0.6,0-0.7c0.2,0,0.9-0.6,0.1-0.6c-0.3,1.3-1.4,0-1.2,1.2
		C90.9,45.2,91.2,45.1,91.2,45.8z"/>
	<path fill="#737373" d="M88.3,48.6c1.4,0,1.8-0.9,2.2-2c0.4-1.1-0.4-0.5-0.8-0.5c-0.3,0.2-0.6-0.6-0.7-0.2
		c-0.1,0.3,0.1,0.6,0.4,0.6c-0.1,0.2-2,0.5-1.1,0.8C88.3,47.8,87.8,48,88.3,48.6z"/>
	<path fill="#737373" d="M91.2,49.6c0.1,0.3,0.6,0.1,0.6-0.1C91.6,49.5,91.4,49.5,91.2,49.6C91.3,49.6,91.2,49.7,91.2,49.6z"/>
	<path fill="#737373" d="M63.1,53.4c0.5,0,0.8-0.2,0.8-0.7C63.4,53,63.2,52.9,63.1,53.4z"/>
	<path fill="#737373" d="M99.4,55.6c0.1,0.3-0.1,0.4-0.6,0.2c0.2,0.5,0.1,0.6,0.4,0.9C99.3,56.3,100,55.8,99.4,55.6z"/>
	<path fill="#737373" d="M99.3,57c0,0.6-0.1,0.9-0.3,0.2c-0.6,0-0.3,0.8-0.3,1.3C99.8,58.8,99.7,57,99.3,57z"/>
	<path fill="#737373" d="M103.2,59.6c-0.6,0.3-0.3,0.5-1,0.3c-0.3-0.1-0.7-0.6-0.8,0C102.3,60,103.2,61.2,103.2,59.6z"/>
	<path fill="#737373" d="M122.3,81.6c-1-0.1-0.2-0.2-0.3-0.6c-0.8,0-2.2-2.8-2.2-3.5c-0.3-0.1-0.5-1.2-0.5-1.2
		c-0.2-0.7-1.1-1.3-0.8-1.9c-0.9-0.5-1.8-2.3-2-3.1c-0.5-0.4-0.9-1.5-0.9-2c-0.6,0-1.4-1.8-1.3-2.4c-0.5,0-0.7-1-1.3-1
		c0.3-0.8-3.6-0.9-4.3-1c0.1-0.7-0.4-1.1-1-1.1c0,1-2.2,1.1-2.9,1.1c-0.5,0-1.7-0.2-1.7-0.8c-0.4-0.1-0.9,0-1.5,0
		c0.1-0.7-1.2-3.6-1.9-3.8c0,0.1,0,0.2,0,0.3c-0.5,0.1-4-0.8-4-0.1c-0.4,0-2.2,0.6-2.4,1.2c-0.2,0-1.7,0.8-1.7,0.2
		c-0.4,0-0.9,0.2-1.1,0.6c-0.4,0-0.9,0.8-1.2,1.1c-0.7-0.1-0.2-0.6-1,0.5c0,0.3-0.6,1.8-0.7,1.8c0.2,0.2,0.2,0.4,0,0.7
		c-0.5,0.4-0.8,1.3-1.4,1.6c-0.5,0.9-0.7-0.1-1.1,1c-0.2,0.6-0.5,1-0.8,1.4c-0.8,1.4-0.8,2.1-0.8,3.4c0,0.5-0.5,0.9-0.4,1.3
		c0.2,0.5,0.5,1.7,0.4,2.1c-0.4,0-0.6,1.3,0.1,1.6c0,0.9,1.3,3.5,2,4c0,0.7,1.4,2.2,2.1,2.2c0.3,0.5,3.2,1.4,3.2,0.7
		c1.2,0,5.4-0.8,6,0.5c1.1,0,1.4-0.2,2.4,0.3c0.1,0.7-0.1,2.9-0.6,3.5c0,1,0.3,2,1.1,2.5c0.1,0.2,0.6,1.2,0.8,1.2
		c0.3,1.2,0.6,2.3,0.4,4c-0.2,1.6-0.7,2.5-0.7,3.9c-0.3,0,0.3,2.7,0.6,2.7c0,1.2,1,2.3,1,3.7c0.1,0,0.4,1.3,0.4,1.6
		c-0.3,0,1.6,3.7,1.6,4c0.3,0,0.4,1.3,0.7,1.3c0.1,0.8,0.4,1.6,0.4,2.2c0.4,0.6,2,0.1,2.6,0.1c0-0.2,2.9-0.8,3.3-0.8
		c0.2-0.3,1.5-2,1.5-2c0-0.9,1.8-2.6,2.5-3.1c0-0.1,0.9-2.3,0.8-2.3c0-1.5,0.4-2.5,0.4-3.9c0.3,0,0.6-1.3,1.2-1.3
		c0.2-0.3,0.6-0.5,1-0.7c0-0.8,0.7-1.5,0.7-2.5c0.4,0-0.3-3.3-0.3-3.6c-0.9,0-0.2-3.9-0.2-4.4c-0.5,0,1.8-2.6,1.8-2.5
		c0.2-0.7,1.4-1.6,1.8-2.2c0.4-0.5,1.6-1.4,1.6-2c0.5-0.3,0.6-0.8,1.1-1.1c0-0.2-0.3-1,0.4-1c-0.2-1.2,0.9-2,0.9-3.2
		c-0.8,0.3-2,0.4-2.8,0.4C123.4,81.6,122.4,81.6,122.3,81.6z"/>
	<path fill="#737373" d="M48.9,71.7c-0.1,0-0.2-0.1-0.3-0.1c-0.3,0.9,1,0.8,1,0.2C49.3,72,49,72.2,48.9,71.7z"/>
	<path fill="#737373" d="M51.8,71.6c-0.3,0.5-0.8,0.3-1.3,0.3c0.3,0.4,1.3,0.9,1.7,0.9c0.3,0.6,1.3,1.1,2.1,1c1-0.1,0-0.8-0.2-1.2
		C53.2,72.6,53.1,71.8,51.8,71.6z"/>
	<path fill="#737373" d="M57.8,74.2c-0.2,0.6,0,0,0,0.5c-0.7,0-1.3-0.4-1.8-0.4c0.2,0.3,0.4,0.5,0.4,0.8c-0.5,0.2-0.9,0-1.4,0
		c0.2,0.4,1.5,0.4,1.7,0.1c1.1,0,1.2,0,2.2,0.1C58.8,74.9,58.1,74.2,57.8,74.2z"/>
	<path fill="#737373" d="M52.4,74.9c-0.3,0.7,0.3,0.6,0.7,0.6C53.1,75.2,52.9,75,52.4,74.9z"/>
	<path fill="#737373" d="M53.2,75.5c0.2,0,0.4-0.1,0.6-0.1C53.7,74.6,53.2,75.1,53.2,75.5z"/>
	<path fill="#737373" d="M60.3,74.9c-0.2,0.6,0.2,0.3,0.5,0.3C60.8,75,60.5,74.9,60.3,74.9z"/>
	<path fill="#737373" d="M59.8,75c0,0.1,0,0.2,0,0.3c0.1,0,0.2-0.1,0.3-0.1C60.1,75.1,59.9,75,59.8,75z"/>
	<path fill="#737373" d="M57,80c0.3,0,0.3,0,0.4-0.3c-0.1,0-0.2-0.1-0.3-0.1C57,79.7,57,79.9,57,80z"/>
	<path fill="#737373" d="M124.3,100.4c0.5,0.2,0.4,0,0.3-0.5C124.4,100.1,124.3,100,124.3,100.4z"/>
</g>
</svg>
