<?xml version="1.0" encoding="utf-8"?>
<!-- Generator: Adobe Illustrator 18.1.0, SVG Export Plug-In . SVG Version: 6.00 Build 0)  -->
<svg version="1.1" id="Layer_1" xmlns="http://www.w3.org/2000/svg" xmlns:xlink="http://www.w3.org/1999/xlink" x="0px" y="0px"
	 viewBox="0 0 73 57" enable-background="new 0 0 73 57" xml:space="preserve">
<g>
	<path fill="#191A7E" d="M48.6,56.7H24.4c-0.9,0-1.6-0.7-1.6-1.6v-0.1c0-0.9,0.7-1.6,1.6-1.6h24.2c0.9,0,1.6,0.7,1.6,1.6V55
		C50.2,55.9,49.5,56.7,48.6,56.7z"/>
	<rect x="27.7" y="47.9" fill="#191A7E" width="17.6" height="7.1"/>
	<path fill="#191A7E" d="M67.7,0.3H5.3C3.2,0.3,1.6,2,1.6,4v42c0,2,1.6,3.7,3.7,3.7h62.5c2,0,3.7-1.6,3.7-3.7V4
		C71.4,2,69.8,0.3,67.7,0.3z M6.3,40.2V7.1c0-1.1,0.9-2,2-2h56.3c1.1,0,2,0.9,2,2v33.1c0,1.1-0.9,2-2,2H8.4
		C7.3,42.2,6.3,41.3,6.3,40.2z"/>
</g>
</svg>
