<?xml version="1.0" encoding="utf-8"?>
<!-- Generator: Adobe Illustrator 18.1.0, SVG Export Plug-In . SVG Version: 6.00 Build 0)  -->
<svg version="1.1" id="Layer_1" xmlns="http://www.w3.org/2000/svg" xmlns:xlink="http://www.w3.org/1999/xlink" x="0px" y="0px"
	 viewBox="0 0 54 45" enable-background="new 0 0 54 45" xml:space="preserve">
<g>
	<path fill="#737373" d="M27.2,31.7c-3,0-5.4-2.4-5.4-5.4c0-3,2.4-5.4,5.4-5.4s5.4,2.4,5.4,5.4C32.6,29.2,30.2,31.7,27.2,31.7z
		 M27.2,22.9c-1.8,0-3.3,1.5-3.3,3.3s1.5,3.3,3.3,3.3s3.3-1.5,3.3-3.3S29,22.9,27.2,22.9z"/>
</g>
<polygon fill="#737373" points="28.5,22.2 41.8,16.3 31.1,26.2 "/>
<path fill="#737373" d="M7.8,39.2c-2.5-3.7-4-8.2-4-13c0-12.9,10.5-23.4,23.4-23.4s23.4,10.5,23.4,23.4c0,4.8-1.5,9.3-4,13
	c-0.2,0.3-0.6,1.3,0,1.7c0.6,0.3,1.7-0.5,1.9-0.8c2.6-4,4.1-8.8,4.1-13.9c0-14-11.4-25.5-25.5-25.5c-14,0-25.5,11.4-25.5,25.5
	c0,5.1,1.5,9.8,4.1,13.8c0.2,0.3,1.1,1.2,1.8,0.8C8.2,40.5,8,39.5,7.8,39.2z"/>
<g>
	<path fill="#737373" d="M36.7,43.6h-19c-1.5,0-2.8-1.3-2.8-2.8v-0.7c0-1.5,1.3-2.8,2.8-2.8h19c1.5,0,2.8,1.3,2.8,2.8v0.7
		C39.5,42.3,38.2,43.6,36.7,43.6z M17.7,39.4c-0.4,0-0.7,0.3-0.7,0.7v0.7c0,0.4,0.3,0.7,0.7,0.7h19c0.4,0,0.7-0.3,0.7-0.7v-0.7
		c0-0.4-0.3-0.7-0.7-0.7H17.7z"/>
</g>
<path fill="#737373" d="M6.4,27.5H3c-0.7,0-1.2-0.6-1.2-1.2v-0.1c0-0.7,0.6-1.2,1.2-1.2h3.5c0.7,0,1.2,0.6,1.2,1.2v0.1
	C7.7,27,7.1,27.5,6.4,27.5z"/>
<path fill="#737373" d="M51.4,27.5H48c-0.7,0-1.2-0.6-1.2-1.2v-0.1c0-0.7,0.6-1.2,1.2-1.2h3.5c0.7,0,1.2,0.6,1.2,1.2v0.1
	C52.7,27,52.1,27.5,51.4,27.5z"/>
<path fill="#737373" d="M28.7,2v3.5c0,0.7-0.6,1.2-1.2,1.2h-0.1c-0.7,0-1.2-0.6-1.2-1.2V2c0-0.7,0.6-1.2,1.2-1.2h0.1
	C28.1,0.7,28.7,1.3,28.7,2z"/>
<path fill="#737373" d="M16,4.5l2,2.8c0.4,0.6,0.3,1.3-0.3,1.7l-0.1,0.1c-0.6,0.4-1.3,0.3-1.7-0.3l-2-2.8c-0.4-0.6-0.3-1.3,0.3-1.7
	l0.1-0.1C14.8,3.8,15.6,4,16,4.5z"/>
<path fill="#737373" d="M38.4,8.9l2-2.8c0.4-0.6,0.3-1.3-0.3-1.7l-0.1-0.1c-0.6-0.4-1.3-0.3-1.7,0.3l-2,2.8
	c-0.4,0.6-0.3,1.3,0.3,1.7l0.1,0.1C37.2,9.5,38,9.4,38.4,8.9z"/>
<path fill="#737373" d="M45.7,16.7l3-1.8c0.6-0.3,0.8-1.1,0.4-1.7l-0.1-0.1c-0.3-0.6-1.1-0.8-1.7-0.4l-3,1.8
	c-0.6,0.3-0.8,1.1-0.4,1.7l0.1,0.1C44.3,16.9,45.1,17.1,45.7,16.7z"/>
<path fill="#737373" d="M7,12.7l3,1.8c0.6,0.3,0.8,1.1,0.4,1.7l-0.1,0.1c-0.3,0.6-1.1,0.8-1.7,0.4l-3-1.8c-0.6-0.3-0.8-1.1-0.4-1.7
	l0.1-0.1C5.7,12.6,6.5,12.4,7,12.7z"/>
<path fill="#737373" d="M8.3,34.8l-3,1.8c-0.6,0.3-0.8,1.1-0.4,1.7l0.1,0.1C5.3,39,6,39.2,6.6,38.8l3-1.8c0.6-0.3,0.8-1.1,0.4-1.7
	L10,35.3C9.6,34.7,8.9,34.5,8.3,34.8z"/>
<path fill="#737373" d="M46.1,34.8l3,1.8c0.6,0.3,0.8,1.1,0.4,1.7l-0.1,0.1c-0.3,0.6-1.1,0.8-1.7,0.4l-3-1.8
	c-0.6-0.3-0.8-1.1-0.4-1.7l0.1-0.1C44.7,34.7,45.5,34.5,46.1,34.8z"/>
</svg>
