<?xml version="1.0" encoding="utf-8"?>
<!-- Generator: Adobe Illustrator 18.1.0, SVG Export Plug-In . SVG Version: 6.00 Build 0)  -->
<svg version="1.1" id="Layer_1" xmlns="http://www.w3.org/2000/svg" xmlns:xlink="http://www.w3.org/1999/xlink" x="0px" y="0px"
	 viewBox="0 0 48 48" enable-background="new 0 0 48 48" xml:space="preserve">
<g>
	<path fill="#737474" d="M41.5,5.1v19.4h1.4c0.6,0,1.1,0.1,1.6,0.3V5.1c0-1.9-1.6-3.5-3.5-3.5H7.1c-1.9,0-3.5,1.6-3.5,3.5v11
		C4,16,4.4,15.9,4.9,15.9h1.7V5.1c0-0.3,0.2-0.5,0.5-0.5H41C41.3,4.6,41.5,4.8,41.5,5.1z"/>
	<polygon fill="#737474" points="26.7,37 26.7,35.4 28.7,35.4 30.4,35.4 30.4,32.4 23,32.4 23,40.5 30.4,40.5 30.4,37 	"/>
	<path fill="#737474" d="M17.8,17.3H5.5c-1.9,0-3.5,1.6-3.5,3.5v22.1c0,1.9,1.6,3.5,3.5,3.5h12.3c1.9,0,3.5-1.6,3.5-3.5V20.8
		C21.3,18.9,19.7,17.3,17.8,17.3z M11.7,45.6c-0.8,0-1.4-0.6-1.4-1.4c0-0.8,0.6-1.4,1.4-1.4s1.4,0.6,1.4,1.4
		C13.1,44.9,12.5,45.6,11.7,45.6z M18.3,41.7H5V20.8c0-0.3,0.2-0.5,0.5-0.5h12.3c0.3,0,0.5,0.2,0.5,0.5V41.7z"/>
	<path fill="#737474" d="M42.5,25.9h-6.9c-1.9,0-3.5,1.6-3.5,3.5v13.5c0,1.9,1.6,3.5,3.5,3.5h6.9c1.9,0,3.5-1.6,3.5-3.5V29.4
		C46,27.4,44.4,25.9,42.5,25.9z M39,45.6c-0.8,0-1.4-0.6-1.4-1.4c0-0.8,0.6-1.4,1.4-1.4s1.4,0.6,1.4,1.4
		C40.4,44.9,39.8,45.6,39,45.6z M43,41.7H35V29.4c0-0.3,0.2-0.5,0.5-0.5h6.9c0.3,0,0.5,0.2,0.5,0.5V41.7z"/>
</g>
</svg>
