<?xml version="1.0" encoding="utf-8"?>
<!-- Generator: Adobe Illustrator 18.1.0, SVG Export Plug-In . SVG Version: 6.00 Build 0)  -->
<svg version="1.1" id="Layer_1" xmlns="http://www.w3.org/2000/svg" xmlns:xlink="http://www.w3.org/1999/xlink" x="0px" y="0px"
	 viewBox="0 0 213 180.5" enable-background="new 0 0 213 180.5" xml:space="preserve">
<g>
	<g>
		<path fill="#737373" d="M105.5,47.8h-0.9l-0.9-0.3L53.2,28.2l0-3.5c0-2.1,1.4-4,3.3-4.7l47.9-17.4l1.7,0l0.8,0.3
			c0,0,49.2,18.1,50.6,18.6c2.2,0.7,2.7,6.5,0.3,7.3l-51.4,19L105.5,47.8z M72.4,24.8l33.1,12.6L139,24.9l-33.7-12L72.4,24.8z"/>
	</g>
	<g>
		<path fill="#737373" d="M107.2,104.2c-3.1,0-5.6-2.5-5.6-5.7V46.7c0-2.6,1.6-5,4-6l46.1-19.1c0.7-0.3,1.5-0.5,2.2-0.5
			c3.1,0,5.6,2.5,5.6,5.7v51.9c0,2.6-1.6,5-4,6l-46.1,19.1C108.7,104.1,107.9,104.2,107.2,104.2z M111.6,49v43l37.9-15.7v-43
			L111.6,49z"/>
	</g>
	<polygon fill="#737373" points="110,102.6 53.1,81.5 53.1,23.5 110,44.7 	"/>
	<path fill="#737373" d="M158.5,77.2l-9-3.2v2.3l-10.8,4.5l0.3,0.1l-6.3,2.4l-21.3,8.8v-0.8l-5.9,2.2L72.4,80.8l32.9-12l6.1,2.2
		V60.4l-4.5-1.6l-0.8-0.3l-1.7,0L56.4,76c-2,0.7-3.3,2.6-3.3,4.7l0,2.6c0,0,0.4,1,1.1,1.4c0.7,0.4,49.4,18.8,49.4,18.8l0.9,0.4h1
		l1.1,0l0.8-0.4l47.8-17.9c2-0.7,3.3-2.6,3.3-4.8L158.5,77.2z"/>
</g>
<g>
	<g>
		<path fill="#737373" d="M54.4,122h-0.9l-0.9-0.3L2.1,102.5l0-3.5c0-2.1,1.4-4,3.3-4.7l47.9-17.4l1.7,0l0.8,0.3
			c0,0,49.2,18.1,50.6,18.6c2.2,0.7,2.7,6.5,0.3,7.3l-51.4,19L54.4,122z M21.3,99.1l33.1,12.6l33.5-12.5l-33.7-12L21.3,99.1z"/>
	</g>
	<g>
		<path fill="#737373" d="M56.1,178.5c-3.1,0-5.6-2.5-5.6-5.7v-51.9c0-2.6,1.6-5,4-6l46.1-19.1c0.7-0.3,1.5-0.5,2.2-0.5
			c3.1,0,5.6,2.5,5.6,5.7v51.9c0,2.6-1.6,5-4,6L58.3,178C57.6,178.3,56.8,178.5,56.1,178.5z M60.5,123.3v43l37.9-15.7v-43
			L60.5,123.3z"/>
	</g>
	<polygon fill="#737373" points="58.9,176.9 2,155.8 2,97.8 58.9,118.9 	"/>
	<path fill="#737373" d="M107.4,151.4l-9-3.2v2.3L87.6,155l0.3,0.1l-6.3,2.4l-21.3,8.8v-0.8l-5.9,2.2l-33.1-12.6l32.9-12l6.1,2.2
		v-10.6l-4.5-1.6l-0.8-0.3l-1.7,0L5.3,150.2c-2,0.7-3.3,2.6-3.3,4.7l0,2.6c0,0,0.4,1,1.1,1.4s49.4,18.8,49.4,18.8l0.9,0.4h1l1.1,0
		l0.8-0.4l47.8-17.9c2-0.7,3.3-2.6,3.3-4.8L107.4,151.4z"/>
</g>
<g>
	<g>
		<path fill="#737373" d="M156.4,122h-0.9l-0.9-0.3l-50.5-19.2l0-3.5c0-2.1,1.4-4,3.3-4.7l47.9-17.4l1.7,0l0.8,0.3
			c0,0,49.2,18.1,50.6,18.6c2.2,0.7,2.7,6.5,0.3,7.3l-51.4,19L156.4,122z M123.3,99.1l33.1,12.6l33.5-12.5l-33.7-12L123.3,99.1z"/>
	</g>
	<g>
		<path fill="#737373" d="M158.1,178.5c-3.1,0-5.6-2.5-5.6-5.7v-51.9c0-2.6,1.6-5,4-6l46.1-19.1c0.7-0.3,1.5-0.5,2.2-0.5
			c3.1,0,5.6,2.5,5.6,5.7v51.9c0,2.6-1.6,5-4,6L160.3,178C159.6,178.3,158.8,178.5,158.1,178.5z M162.5,123.3v43l37.9-15.7v-43
			L162.5,123.3z"/>
	</g>
	<polygon fill="#737373" points="160.9,176.9 104,155.8 104,97.8 160.9,118.9 	"/>
	<path fill="#737373" d="M209.4,151.4l-9-3.2v2.3l-10.8,4.5l0.3,0.1l-6.3,2.4l-21.3,8.8v-0.8l-5.9,2.2l-33.1-12.6l32.9-12l6.1,2.2
		v-10.6l-4.5-1.6l-0.8-0.3l-1.7,0l-47.9,17.4c-2,0.7-3.3,2.6-3.3,4.7l0,2.6c0,0,0.4,1,1.1,1.4s49.4,18.8,49.4,18.8l0.9,0.4h1l1.1,0
		l0.8-0.4l47.8-17.9c2-0.7,3.3-2.6,3.3-4.8L209.4,151.4z"/>
</g>
</svg>
