<?xml version="1.0" encoding="utf-8"?>
<!-- Generator: Adobe Illustrator 18.1.0, SVG Export Plug-In . SVG Version: 6.00 Build 0)  -->
<svg version="1.1" id="Layer_1" xmlns="http://www.w3.org/2000/svg" xmlns:xlink="http://www.w3.org/1999/xlink" x="0px" y="0px"
	 viewBox="0 0 60 60.3" enable-background="new 0 0 60 60.3" xml:space="preserve">
<g>
	<g>
		<path fill="#737373" d="M30,59.2c-16,0-29-13-29-29c0-16,13-29,29-29c16,0,29,13,29,29C59,46.2,46,59.2,30,59.2z M30,5.2
			c-13.8,0-25,11.2-25,25s11.2,25,25,25s25-11.2,25-25S43.8,5.2,30,5.2z"/>
	</g>
	<path fill="none" stroke="#737373" stroke-width="2" stroke-miterlimit="10" d="M43.7,38.3c-1-0.9-4.4-2.6-6.5-2.1s-2,2.2-4.4,2.2
		c-1.4,0-4.7-2.2-6.7-4.2s-4.2-5.6-4.2-7.1c0-2.4,1.8-2.2,2.2-4.3c0.5-2.2-1.2-5.6-2-6.6s-1.8-2-4.1-1.5c-1.8,0.4-3.1,2.7-3.6,4.5
		s-0.8,5.3,0.6,9.7c1.2,4,5.4,8.9,6.2,9.7s5.4,5.2,9.7,6.6c4.3,1.4,7.8,1.2,9.7,0.8c1.8-0.5,4.1-1.7,4.6-3.5
		C45.7,40.2,44.7,39.2,43.7,38.3z"/>
</g>
</svg>
