<?xml version="1.0" encoding="utf-8"?>
<!-- Generator: Adobe Illustrator 18.1.0, SVG Export Plug-In . SVG Version: 6.00 Build 0)  -->
<svg version="1.1" id="Layer_1" xmlns="http://www.w3.org/2000/svg" xmlns:xlink="http://www.w3.org/1999/xlink" x="0px" y="0px"
	 viewBox="0 0 89.2 89.2" enable-background="new 0 0 89.2 89.2" xml:space="preserve">
<g>
	<g>
		<path fill="#737373" d="M76.8,61.9H12.6c-2.4,0-4.4-2-4.4-4.4V20.2c0-2.4,2-4.4,4.4-4.4h64.1c2.4,0,4.4,2,4.4,4.4v37.3
			C81.1,59.9,79.2,61.9,76.8,61.9z M15.3,54.9h58.8v-32H15.3V54.9z"/>
	</g>
	<path fill="#737373" d="M1.1,64.3c0,7.9,8.6,9.1,8.6,9.1h69.9c0,0,8.6-1.2,8.6-9.1H1.1z M38.2,70.4l0-3H51l0,3H38.2z"/>
</g>
</svg>
