<?xml version="1.0" encoding="utf-8"?>
<!-- Generator: Adobe Illustrator 18.1.0, SVG Export Plug-In . SVG Version: 6.00 Build 0)  -->
<svg version="1.1" id="Layer_1" xmlns="http://www.w3.org/2000/svg" xmlns:xlink="http://www.w3.org/1999/xlink" x="0px" y="0px"
	 viewBox="0 0 67 53" enable-background="new 0 0 67 53" xml:space="preserve">
<g>
	<g>
		<path fill="#737373" d="M14.9,19.7V2.6h10.3v8.8L14.9,19.7z M18.9,6.6v4.7l2.3-1.8V6.6H18.9z"/>
	</g>
	<polygon fill="#737373" points="26.6,34.3 26.6,52.4 30.6,52.4 30.6,48.4 30.6,43.1 30.6,38.3 36.6,38.3 36.6,43.1 36.6,48.4 
		36.6,52.4 40.6,52.4 40.6,34.3 	"/>
	<g>
		<polygon fill="#737373" points="13.6,28.4 13.6,19.4 9.6,21.6 9.6,52.4 30.6,52.4 30.6,48.4 13.6,48.4 		"/>
		<polygon fill="#737373" points="53.2,18.9 53.2,28.4 53.2,48.4 36.6,48.4 36.6,52.4 57.2,52.4 57.2,21.5 		"/>
	</g>
	<path fill="#737373" d="M64.2,24.7L35.3,1.2c-0.2-0.2-0.4-0.3-0.6-0.3c-0.3-0.2-0.8-0.3-1.2-0.3c-0.5,0-1,0.1-1.3,0.3
		C32,1,31.8,1.1,31.7,1.2L2.8,24.7c-0.9,0.7-1,2-0.3,2.8c0.4,0.5,1,0.7,1.6,0.7c0.4,0,0.9-0.1,1.3-0.4L33.5,4.9l28.2,22.9
		c0.4,0.3,0.8,0.4,1.3,0.4c0.6,0,1.2-0.3,1.6-0.7C65.2,26.7,65,25.4,64.2,24.7z"/>
</g>
</svg>
