<?xml version="1.0" encoding="utf-8"?>
<!-- Generator: Adobe Illustrator 18.1.0, SVG Export Plug-In . SVG Version: 6.00 Build 0)  -->
<svg version="1.1" id="Layer_1" xmlns="http://www.w3.org/2000/svg" xmlns:xlink="http://www.w3.org/1999/xlink" x="0px" y="0px"
	 viewBox="0 0 106.3 107" enable-background="new 0 0 106.3 107" xml:space="preserve">
<path fill="#737373" d="M70.9,98H35.4c-1.4,0-2.5-1.1-2.5-2.5l0,0c0-1.4,1.1-2.5,2.5-2.5h35.5c1.4,0,2.5,1.1,2.5,2.5l0,0
	C73.4,96.9,72.3,98,70.9,98z"/>
<rect x="40.2" y="85" fill="#737373" width="26" height="10.5"/>
<path fill="#737373" d="M99.3,14.9H7c-3,0-5.4,2.4-5.4,5.4v62c0,3,2.4,5.4,5.4,5.4h92.2c3,0,5.4-2.4,5.4-5.4v-62
	C104.7,17.3,102.3,14.9,99.3,14.9z M8.6,73.7V24.9c0-1.7,1.3-3,3-3h83.1c1.6,0,3,1.3,3,3v48.8c0,1.7-1.4,3-3,3H11.6
	C10,76.7,8.6,75.3,8.6,73.7z"/>
</svg>
