<?xml version="1.0" encoding="utf-8"?>
<!-- Generator: Adobe Illustrator 18.1.0, SVG Export Plug-In . SVG Version: 6.00 Build 0)  -->
<svg version="1.1" id="Layer_1" xmlns="http://www.w3.org/2000/svg" xmlns:xlink="http://www.w3.org/1999/xlink" x="0px" y="0px"
	 viewBox="0 0 48 65.2" enable-background="new 0 0 48 65.2" xml:space="preserve">
<g>
	<path fill="#737373" d="M18.9,54.1c-2.8,0-5,2.2-5,5c0,2.8,2.2,5,5,5c2.8,0,5-2.2,5-5C23.9,56.4,21.7,54.1,18.9,54.1z M18.9,61.3
		c-1.2,0-2.1-0.9-2.1-2.1c0-1.2,0.9-2.1,2.1-2.1c1.2,0,2.1,0.9,2.1,2.1C21,60.3,20.1,61.3,18.9,61.3z"/>
	<path fill="#737373" d="M35.6,54.1c-2.8,0-5,2.2-5,5c0,2.8,2.2,5,5,5c2.8,0,5-2.2,5-5C40.6,56.4,38.4,54.1,35.6,54.1z M35.6,61.3
		c-1.2,0-2.1-0.9-2.1-2.1c0-1.2,0.9-2.1,2.1-2.1s2.1,0.9,2.1,2.1C37.7,60.3,36.8,61.3,35.6,61.3z"/>
	<path fill="#737373" d="M7.6,25.7H1.8c-0.7,0-1.2-0.6-1.2-1.2v-0.9c0-0.7,0.6-1.2,1.2-1.2h5.9c0.7,0,1.2,0.6,1.2,1.2v0.9
		C8.9,25.2,8.3,25.7,7.6,25.7z"/>
	<path fill="#737373" d="M46.1,32.5H9.5c-0.7,0-1.2-0.6-1.2-1.2v-0.9c0-0.7,0.6-1.2,1.2-1.2h36.7c0.7,0,1.2,0.6,1.2,1.2v0.9
		C47.4,31.9,46.8,32.5,46.1,32.5z"/>
	<path fill="#737373" d="M47.4,30.8l-5.3,20.9c-0.2,0.7-0.8,1.1-1.5,0.9l-0.8-0.2c-0.7-0.2-1.1-0.8-0.9-1.5L44.2,30
		c0.2-0.7,0.8-1.1,1.5-0.9l0.8,0.2C47.2,29.5,47.6,30.2,47.4,30.8z"/>
	<path fill="#737373" d="M23.9,30.4L24,51.2c0,0.7-0.6,1.2-1.2,1.2l-0.9,0c-0.7,0-1.2-0.6-1.2-1.2l-0.1-20.8c0-0.7,0.6-1.2,1.2-1.2
		l0.9,0C23.4,29.2,23.9,29.7,23.9,30.4z"/>
	<path fill="#737373" d="M35.6,30.4l0.1,20.8c0,0.7-0.6,1.2-1.2,1.2l-0.9,0c-0.7,0-1.2-0.6-1.2-1.2l-0.1-20.8c0-0.7,0.6-1.2,1.2-1.2
		l0.9,0C35.1,29.2,35.6,29.7,35.6,30.4z"/>
	<path fill="#737373" d="M43.3,39l-31.4,0.1c-0.7,0-1.2-0.6-1.2-1.2l0-0.9c0-0.7,0.6-1.2,1.2-1.2l31.4-0.1c0.7,0,1.2,0.6,1.2,1.2
		l0,0.9C44.5,38.5,44,39,43.3,39z"/>
	<path fill="#737373" d="M42.6,45.7L14,45.8c-0.7,0-1.2-0.6-1.2-1.2l0-0.9c0-0.7,0.6-1.2,1.2-1.2l28.6-0.1c0.7,0,1.2,0.6,1.2,1.2
		l0,0.9C43.8,45.2,43.3,45.7,42.6,45.7z"/>
	<path fill="#737373" d="M31.7,60.8l-8.6,0c-0.7,0-1.2-0.6-1.2-1.2l0-0.9c0-0.7,0.6-1.2,1.2-1.2l8.6,0c0.7,0,1.2,0.6,1.2,1.2l0,0.9
		C32.9,60.2,32.4,60.8,31.7,60.8z"/>
	<path fill="#737373" d="M42.7,60.8l-3,0c-0.7,0-1.2-0.6-1.2-1.2l0-0.9c0-0.7,0.6-1.2,1.2-1.2l3,0c0.7,0,1.2,0.6,1.2,1.2l0,0.9
		C44,60.2,43.4,60.8,42.7,60.8z"/>
	<path fill="#737373" d="M5.6,24.2l8.2,26.7c0.2,0.7,0.9,1,1.6,0.8l0.8-0.3c0.7-0.2,1-0.9,0.8-1.6L8.8,23.2c-0.2-0.7-0.9-1-1.6-0.8
		l-0.8,0.3C5.8,22.9,5.4,23.6,5.6,24.2z"/>
	<path fill="#737373" d="M12.2,55L12.2,55c0-1.4,1.1-2.5,2.5-2.5h26.5v-2.7c-0.7-0.4-1.6-0.6-2.5-0.6H14.4c-2.9,0-5.3,2.4-5.3,5.3
		v0.9c0,2.9,2.4,5.3,5.3,5.3h2.2v-3.3h-1.9C13.3,57.5,12.2,56.4,12.2,55z"/>
</g>
<polygon display="none" fill="#FFCC09" points="44.8,6.9 38.9,1 24.4,15.5 17.3,8.4 11.6,14.1 24.5,27.1 24.5,27.1 24.6,27.1 "/>
</svg>
