<?xml version="1.0" encoding="utf-8"?>
<!-- Generator: Adobe Illustrator 18.1.0, SVG Export Plug-In . SVG Version: 6.00 Build 0)  -->
<svg version="1.1" id="Layer_1" xmlns="http://www.w3.org/2000/svg" xmlns:xlink="http://www.w3.org/1999/xlink" x="0px" y="0px"
	 viewBox="0 0 48 48" enable-background="new 0 0 48 48" xml:space="preserve">
<g>
	<path fill="#737474" d="M24,47C11.1,47,0.6,36.5,0.6,23.6C0.6,10.7,11.1,0.2,24,0.2c12.9,0,23.4,10.5,23.4,23.4
		C47.4,36.5,36.9,47,24,47z M24,4.5C13.4,4.5,4.8,13,4.8,23.6S13.4,42.8,24,42.8s19.2-8.6,19.2-19.2S34.6,4.5,24,4.5z"/>
</g>
<g>
	<line fill="#737373" x1="2.7" y1="23.6" x2="45.3" y2="23.6"/>
	<rect x="2.7" y="21.5" fill="#737474" width="42.6" height="4.2"/>
</g>
<g>
	<line fill="#737373" x1="24" y1="44.9" x2="24" y2="2.3"/>
	<rect x="21.9" y="2.3" fill="#737474" width="4.2" height="42.6"/>
</g>
<path fill="#737475" d="M39.6,9.2c-1-1.1-2-2-3.2-2.8C33.1,9.2,28.7,11,24,11s-9.1-1.7-12.4-4.6c-1.2,0.8-2.2,1.8-3.2,2.8
	c4.1,3.7,9.6,6,15.6,6C30,15.2,35.5,12.9,39.6,9.2z"/>
<path fill="#737475" d="M8.4,38c1,1.1,2,2,3.2,2.8c3.3-2.9,7.7-4.6,12.4-4.6s9.1,1.7,12.4,4.6c1.2-0.8,2.2-1.8,3.2-2.8
	c-4.1-3.7-9.6-6-15.6-6C18,32,12.5,34.3,8.4,38z"/>
</svg>
